<svg width="61" height="61" viewBox="0 0 61 61" fill="none" xmlns="http://www.w3.org/2000/svg">
<path d="M2 30.125C2 42.4062 9.875 52.8125 20.75 56.6562V3.59375C9.875 7.4375 2 17.8437 2 30.125Z" fill="#428BC1"/>
<path d="M20.75 56.6562C23.6562 57.6875 26.8438 58.25 30.125 58.25C33.4062 58.25 36.5938 57.6875 39.5 56.6562V3.59375C36.5938 2.5625 33.5 2 30.125 2C26.75 2 23.6562 2.5625 20.75 3.59375V56.6562Z" fill="white"/>
<path d="M58.25 30.125C58.25 17.8437 50.4688 7.4375 39.5 3.59375V56.6562C50.4688 52.8125 58.25 42.4062 58.25 30.125Z" fill="#ED4C5C"/>
</svg>
