<svg width="60" height="60" viewBox="0 0 60 60" fill="none" xmlns="http://www.w3.org/2000/svg">
<path d="M30.9375 30L10.5938 50.3438C15.6562 55.125 22.5 58.125 30 58.125C45.5625 58.125 58.125 45.5625 58.125 30H30.9375Z" fill="#ED4C5C"/>
<path d="M58.125 30C58.125 14.4375 45.5625 1.875 30 1.875C22.5 1.875 15.6562 4.875 10.5938 9.65625L30.9375 30H58.125Z" fill="#428BC1"/>
<path d="M10.5938 9.65601C5.25 14.8123 1.875 22.031 1.875 29.9998C1.875 37.9685 5.25 45.1873 10.5938 50.3435L30.9375 29.9998L10.5938 9.65601Z" fill="#F9F9F9"/>
<path d="M12.1875 12.7498L11.4375 14.0623L12.4688 15.0935L11.0625 14.906L10.3125 16.2185L10.125 14.8123L8.71875 14.6248L10.0313 13.8748L9.84375 12.4685L10.875 13.4998L12.1875 12.7498ZM12.375 44.9998L11.3438 46.1248L12.0938 47.3435L10.7813 46.781L9.75 47.906L9.9375 46.406L8.53125 45.8435L10.0313 45.5623L10.2188 44.0623L10.9688 45.3748L12.375 44.9998ZM28.5938 29.9998L27.1875 30.4685V31.8748L26.25 30.7498L24.8438 31.1248L25.7812 29.9998L24.8438 28.8748L26.25 29.2498L27.1875 28.1248V29.531L28.5938 29.9998ZM22.2188 28.5935L21.6563 28.1248L15.5625 29.4373H15.6563L21.375 27.9373L20.625 27.4685L15.75 29.3435L19.7813 25.9685L19.6875 25.1248L15.4688 29.4373H15.375L19.5938 24.7498L19.5 24.0935L18.8438 24.1873L15.0938 29.0623V28.9685L18.5625 23.9998L17.7188 24.0935L15.1875 28.6873L16.125 23.4373L15.5625 22.8748L15 28.9685V29.0623L15.1875 22.6873L14.7188 22.2185L14.25 22.6873L14.4375 29.0623V28.9685L13.9688 22.9685L13.4063 23.531L14.3438 28.781L11.8125 24.1873L10.9688 24.0935L14.4375 29.0623V29.156L10.5938 24.0935L9.9375 23.9998L9.84375 24.656L14.0625 29.3435H13.9688L9.75 25.031L9.65625 25.8748L13.6875 29.2498L8.8125 27.3748L8.15625 27.8435L13.875 29.3435H13.9688L7.78125 28.1248L7.21875 28.4998L7.59375 29.0623L13.7813 29.906H13.6875L7.78125 29.3435L8.25 29.9998L13.5 29.906L8.625 31.8748L8.4375 32.7185L13.7813 30.0935H13.875L8.34375 33.0935L8.15625 33.7498L8.8125 33.9373L14.1563 30.5623V30.656L9.28125 34.1248L10.0313 34.3123L13.9688 30.8435L11.25 35.4373L11.625 36.1873L14.0625 30.7498L14.1563 30.656L11.8125 36.5623L12.0938 37.2185L12.75 36.9373L14.7188 30.8435V30.9373L13.125 36.7498L13.875 36.3748L14.7188 31.1248L15.5625 36.3748L16.3125 36.7498L14.7188 30.9373V30.8435L16.6875 36.9373L17.3438 37.2185L17.625 36.5623L15.2812 30.656L15.375 30.7498L17.8125 36.1873L18.1875 35.4373L15.5625 30.8435L19.5 34.3123L20.25 34.1248L15.375 30.656V30.5623L20.7188 33.9373L21.375 33.7498L21.1875 33.0935L15.6563 30.0935H15.75L21.0938 32.7185L20.8125 31.8748L15.8438 30.0935L21.0938 30.1873L21.5625 29.531L15.6563 30.0935H15.5625L21.75 29.2498L22.2188 28.5935Z" fill="#FFCE31"/>
<path d="M14.7188 34.2188C17.0487 34.2188 18.9375 32.33 18.9375 30C18.9375 27.67 17.0487 25.7812 14.7188 25.7812C12.3888 25.7812 10.5 27.67 10.5 30C10.5 32.33 12.3888 34.2188 14.7188 34.2188Z" fill="#FFCE31"/>
</svg>
