<svg width="60" height="60" viewBox="0 0 60 60" fill="none" xmlns="http://www.w3.org/2000/svg">
<path d="M49.1245 9.375C44.062 4.6875 37.4058 1.875 29.9995 1.875C22.5933 1.875 15.937 4.6875 10.8745 9.375H49.1245ZM10.8745 50.625C15.937 55.3125 22.5933 58.125 29.9995 58.125C37.4058 58.125 44.062 55.3125 49.1245 50.625H10.8745Z" fill="#ED4C5C"/>
<path d="M1.875 30C1.875 34.0312 2.71875 37.7812 4.21875 41.25H55.7812C57.2812 37.7812 58.125 34.0312 58.125 30C58.125 25.9688 57.2812 22.2188 55.7812 18.75H4.21875C2.71875 22.2188 1.875 25.9688 1.875 30Z" fill="#2A5F9E"/>
<path d="M10.8755 50.625H49.0317C51.8442 48 54.188 44.8125 55.688 41.25H4.12549C5.81299 44.8125 8.06299 48 10.8755 50.625ZM49.1255 9.375H10.8755C8.06299 12 5.71924 15.1875 4.21924 18.75H55.7817C54.188 15.1875 51.938 12 49.1255 9.375Z" fill="#F9F9F9"/>
</svg>
