<svg width="24" height="24" viewBox="0 0 24 24" fill="none" xmlns="http://www.w3.org/2000/svg">
<g clip-path="url(#clip0_552_2132)">
<path d="M12 23.999C18.6275 23.999 24 18.6265 24 11.999C24 5.373 18.6275 0 12 0C5.3725 0 0 5.3725 0 11.9995C0 18.6265 5.3725 23.999 12 23.999Z" fill="#FABC3D"/>
<path d="M11.1276 18.1085C14.5016 18.1085 17.2366 15.3735 17.2366 11.9995C17.2366 8.62551 14.5016 5.89001 11.1276 5.89001C7.75355 5.89001 5.01855 8.62551 5.01855 12C5.01855 15.3745 7.75355 18.1085 11.1276 18.1085Z" fill="#DF2C2C"/>
<path d="M11.1274 16.363C12.2847 16.363 13.3946 15.9033 14.2129 15.0849C15.0312 14.2666 15.4909 13.1568 15.4909 11.9995C15.4909 10.8422 15.0312 9.73234 14.2129 8.91403C13.3946 8.09571 12.2847 7.63599 11.1274 7.63599C9.97014 7.63599 8.86027 8.09571 8.04196 8.91403C7.22364 9.73234 6.76392 10.8422 6.76392 11.9995C6.76392 13.1568 7.22364 14.2666 8.04196 15.0849C8.86027 15.9033 9.97014 16.363 11.1274 16.363Z" fill="#F0F1F1"/>
<path d="M11.127 14.6175C11.4739 14.6223 11.8182 14.5581 12.1401 14.4287C12.462 14.2992 12.7549 14.1071 13.0019 13.8635C13.2489 13.6199 13.445 13.3297 13.5789 13.0096C13.7127 12.6896 13.7817 12.3461 13.7817 11.9992C13.7817 11.6523 13.7127 11.3089 13.5789 10.9888C13.445 10.6688 13.2489 10.3785 13.0019 10.1349C12.7549 9.89133 12.462 9.69923 12.1401 9.5698C11.8182 9.44038 11.4739 9.37619 11.127 9.38099C10.4389 9.3905 9.78213 9.67053 9.29887 10.1605C8.81561 10.6505 8.54468 11.311 8.54468 11.9992C8.54468 12.6874 8.81561 13.348 9.29887 13.838C9.78213 14.3279 10.4389 14.608 11.127 14.6175Z" fill="#DF2C2C"/>
<path d="M11.1275 12.8715C11.2421 12.8715 11.3555 12.8489 11.4614 12.805C11.5673 12.7612 11.6634 12.6969 11.7445 12.6159C11.8255 12.5349 11.8897 12.4387 11.9336 12.3329C11.9774 12.227 12 12.1135 12 11.999C12 11.8844 11.9774 11.7709 11.9336 11.6651C11.8897 11.5592 11.8255 11.463 11.7445 11.382C11.6634 11.301 11.5673 11.2367 11.4614 11.1929C11.3555 11.149 11.2421 11.1265 11.1275 11.1265C10.8961 11.1265 10.6742 11.2184 10.5106 11.382C10.3469 11.5456 10.255 11.7676 10.255 11.999C10.255 12.2304 10.3469 12.4523 10.5106 12.6159C10.6742 12.7795 10.8961 12.8715 11.1275 12.8715Z" fill="#E2E4E5"/>
<path d="M15.4626 7.69701L14.2276 8.93201C13.8231 8.52056 13.3405 8.19399 12.8082 7.97145C12.2759 7.7489 11.7045 7.63486 11.1276 7.63601C10.2629 7.63619 9.41771 7.89334 8.69944 8.37481C7.98118 8.85627 7.4222 9.54033 7.09349 10.3401C6.76477 11.1399 6.68115 12.0193 6.85325 12.8668C7.02535 13.7142 7.4454 14.4913 8.06006 15.0995L6.82506 16.3345C6.252 15.7675 5.79724 15.0923 5.48713 14.3481C5.17703 13.604 5.01776 12.8057 5.01856 11.9995C5.01856 8.62651 7.75456 5.89051 11.1276 5.89051C11.9337 5.8897 12.732 6.04897 13.4762 6.35908C14.2203 6.66918 14.8955 7.12395 15.4626 7.69701Z" fill="#FA5655"/>
<path d="M14.2274 8.93199L12.9949 10.1645C12.7519 9.91569 12.4613 9.7182 12.1405 9.5837C11.8198 9.44921 11.4753 9.38045 11.1274 9.38149C10.7836 9.38136 10.4431 9.44898 10.1253 9.58049C9.80762 9.71201 9.51893 9.90483 9.27576 10.148C9.03259 10.3911 8.8397 10.6797 8.70813 10.9974C8.57656 11.3151 8.50887 11.6556 8.50893 11.9995C8.50893 12.7305 8.80793 13.3935 9.29243 13.867L8.05943 15.0995C7.64821 14.6948 7.32179 14.2123 7.09926 13.68C6.87674 13.1477 6.76257 12.5764 6.76343 11.9995C6.7633 11.4264 6.87609 10.8589 7.09536 10.3294C7.31464 9.79988 7.63609 9.31878 8.04136 8.91356C8.44662 8.50833 8.92776 8.18694 9.45728 7.96773C9.9868 7.74852 10.5543 7.63579 11.1274 7.63599C12.3424 7.63599 13.4399 8.13099 14.2274 8.93199Z" fill="white"/>
<path d="M12.995 10.1645L11.76 11.3995C11.6809 11.3111 11.5845 11.2397 11.4768 11.1898C11.3692 11.1399 11.2525 11.1125 11.1338 11.1092C11.0152 11.1059 10.8971 11.1269 10.7869 11.1707C10.6766 11.2146 10.5764 11.2805 10.4925 11.3644C10.4086 11.4483 10.3426 11.5485 10.2987 11.6587C10.2548 11.7689 10.2338 11.887 10.237 12.0056C10.2402 12.1243 10.2676 12.241 10.3175 12.3487C10.3674 12.4564 10.4387 12.5528 10.527 12.632L9.29204 13.867C9.04325 13.6239 8.84576 13.3334 8.71126 13.0126C8.57677 12.6918 8.508 12.3473 8.50904 11.9995C8.50898 11.6557 8.57665 11.3152 8.70819 10.9975C8.83974 10.6799 9.03258 10.3912 9.27569 10.1481C9.51881 9.905 9.80744 9.71216 10.1251 9.58062C10.4428 9.44908 10.7832 9.3814 11.127 9.38147C11.858 9.38147 12.5215 9.67997 12.995 10.1645Z" fill="#FA5655"/>
<path d="M11.76 11.3995L11.2975 11.862C11.2785 11.837 11.2545 11.8164 11.2269 11.8015C11.1993 11.7866 11.1688 11.7777 11.1375 11.7756C11.1063 11.7734 11.0749 11.778 11.0455 11.789C11.0161 11.8 10.9895 11.8172 10.9673 11.8393C10.9451 11.8615 10.9279 11.8882 10.9169 11.9176C10.9059 11.9469 10.9014 11.9783 10.9035 12.0096C10.9057 12.0409 10.9145 12.0714 10.9294 12.099C10.9443 12.1265 10.965 12.1506 10.99 12.1695L10.5275 12.632C10.4403 12.5527 10.3702 12.4565 10.3214 12.3492C10.2725 12.2419 10.246 12.1259 10.2434 12.008C10.2408 11.8902 10.2621 11.7731 10.3061 11.6638C10.3502 11.5544 10.4159 11.4552 10.4995 11.372C10.5828 11.2888 10.6821 11.2232 10.7914 11.1794C10.9008 11.1355 11.0178 11.1142 11.1356 11.1168C11.2534 11.1194 11.3694 11.1457 11.4767 11.1943C11.584 11.2429 11.6804 11.3127 11.76 11.3995Z" fill="white"/>
<path d="M11.127 11.9995C11.3865 12.1725 11.8435 12.387 12.4365 12.5605V11.438C11.83 11.616 11.373 11.8355 11.127 11.9995Z" fill="#3E3E3F"/>
<path d="M12.4365 11.438V12.5605C12.794 12.6644 13.1584 12.7426 13.527 12.7945V11.2045C13.158 11.2561 12.7945 11.334 12.4365 11.438Z" fill="#FACB1B"/>
<path d="M12.4365 11.438C11.83 11.616 11.373 11.8355 11.127 11.9995H12.4365V11.438Z" fill="#818284"/>
<path d="M18.982 9.5995C16.9465 9.5995 16.031 10.7235 15.6455 11.1945C15.3048 11.1511 14.9619 11.1284 14.6185 11.1265C14.2535 11.1265 13.8885 11.153 13.5275 11.2045V12.794C14.2297 12.8936 14.9423 12.897 15.6455 12.804C16.0305 13.274 16.9455 14.399 18.982 14.399C18.982 13.599 18.842 12.8305 18.029 11.999C18.842 11.168 18.982 10.3995 18.982 9.5995Z" fill="#3E3E3F"/>
<path d="M18.029 11.999C18.842 11.168 18.982 10.399 18.982 9.599C16.946 9.599 16.031 10.724 15.6455 11.194C14.9423 11.101 14.2297 11.1044 13.5275 11.204V11.999H18.029Z" fill="#818284"/>
<path d="M13.5275 12V11.205C13.1587 11.2563 12.7941 11.3342 12.4365 11.438V12H13.5275Z" fill="#FBE158"/>
</g>
<defs>
<clipPath id="clip0_552_2132">
<rect width="24" height="24" fill="white"/>
</clipPath>
</defs>
</svg>
