<svg width="24" height="24" viewBox="0 0 24 24" fill="none" xmlns="http://www.w3.org/2000/svg">
<g clip-path="url(#clip0_552_2077)">
<path d="M12 23.999C18.6275 23.999 24 18.6265 24 11.999C24 5.373 18.6275 0 12 0C5.3725 0 0 5.3725 0 11.9995C0 18.6265 5.3725 23.999 12 23.999Z" fill="#25B7D3"/>
<path d="M9.38202 14.6174V16.7989C9.38202 16.9524 9.40952 17.0989 9.45802 17.2354C9.54834 17.4903 9.71534 17.7111 9.93611 17.8673C10.1569 18.0235 10.4206 18.1076 10.691 18.1079H11.1275V18.5444C11.1273 18.6018 11.1385 18.6586 11.1603 18.7116C11.1821 18.7646 11.2142 18.8128 11.2547 18.8533C11.2953 18.8939 11.3434 18.9261 11.3964 18.948C11.4494 18.9699 11.5062 18.9811 11.5635 18.9809H12.4365C12.4938 18.9809 12.5506 18.9696 12.6036 18.9477C12.6565 18.9258 12.7046 18.8936 12.7452 18.8531C12.7857 18.8126 12.8179 18.7644 12.8398 18.7115C12.8617 18.6585 12.873 18.6018 12.873 18.5444V18.1079H13.309C13.5795 18.1076 13.8432 18.0235 14.0639 17.8673C14.2847 17.7111 14.4517 17.4903 14.542 17.2354C14.592 17.0954 14.618 16.9479 14.618 16.7989V14.6174H9.38202Z" fill="#E2E4E5"/>
<path d="M9.38199 14.6181H14.618C16.062 13.6856 17.2365 12.1011 17.2365 10.2546C17.2365 7.36257 14.892 5.01807 12 5.01807C9.10799 5.01807 6.76349 7.36257 6.76349 10.2551C6.76349 12.1016 7.85449 13.7456 9.38199 14.6181Z" fill="#FACB1B"/>
<path d="M12 16.145H9.38202V16.8H12V16.145ZM12 15.054H9.38202V15.709H12V15.054ZM10.691 18.1085H12V17.235H9.45802C9.54826 17.49 9.71522 17.7108 9.936 17.8671C10.1568 18.0234 10.4205 18.108 10.691 18.1085Z" fill="white"/>
<path d="M11.127 18.1085V18.545C11.127 18.6608 11.1729 18.7718 11.2548 18.8537C11.3367 18.9355 11.4477 18.9815 11.5635 18.9815H12V18.1085H11.127Z" fill="#E2E4E5"/>
<path d="M12.873 18.1085V18.545C12.873 18.6608 12.827 18.7718 12.7452 18.8537C12.6633 18.9355 12.5523 18.9815 12.4365 18.9815H12V18.1085H12.873Z" fill="#B6BCBD"/>
<path d="M14.618 14.6174H9.38202V15.0539H14.618V14.6174ZM14.618 15.7084H9.38202V16.1449H14.618V15.7084ZM12 16.7994H9.38202C9.38202 16.9524 9.40952 17.0994 9.45802 17.2354H14.542C14.592 17.0954 14.618 16.9479 14.618 16.7994H12Z" fill="#CFD3D4"/>
<path d="M9.38202 16.7994C9.38202 16.9524 9.40952 17.0994 9.45802 17.2354H12V16.7999L9.38202 16.7994ZM12 14.6174H9.38202V15.0539H12V14.6174ZM12 15.7084H9.38202V16.1449H12V15.7084Z" fill="#E2E4E5"/>
<path d="M9.38199 14.6181H12V5.01807C9.10799 5.01807 6.76349 7.36257 6.76349 10.2546C6.76349 12.1011 7.85449 13.7451 9.38199 14.6181Z" fill="#FBE158"/>
</g>
<defs>
<clipPath id="clip0_552_2077">
<rect width="24" height="24" fill="white"/>
</clipPath>
</defs>
</svg>
