<svg width="299" height="66" viewBox="0 0 299 66" fill="none" xmlns="http://www.w3.org/2000/svg">
<mask id="path-1-outside-1_552_2015" maskUnits="userSpaceOnUse" x="13" y="-0.875" width="273" height="67" fill="black">
<rect fill="white" x="13" y="-0.875" width="273" height="67"/>
<path d="M70.75 8.5625L67.875 54.4375L53.625 55.0625L53.75 30.875L47.3125 50.375H41.8125L36.875 32.9375L36.8125 53.1875L22.375 53.625L23 10.4375L39.0625 9.8125L45.4375 30.5L53.9375 8.5625H70.75ZM111.906 51.4375L96.4062 53.4375L94.5312 46.375H87.4062L85.8438 53.4375L69.9062 51.875L82.3438 10.25L99.7188 9.375L111.906 51.4375ZM93.4062 36.8125L91.0312 25.9375L88.7188 36.8125H93.4062ZM155.062 9.3125L152.812 51.6875L136.438 53.1875L127.688 30.5L126.312 53.625H112.25L113.375 9.3125L129 8.5625L139.812 31.0625L140.312 9.8125L155.062 9.3125ZM200.125 9.3125L197.875 51.6875L181.5 53.1875L172.75 30.5L171.375 53.625H157.312L158.438 9.3125L174.062 8.5625L184.875 31.0625L185.375 9.8125L200.125 9.3125ZM242.844 11.8125L225.656 35.8125L224.844 55.375H210.031L210.406 35.9375L201.469 12.75L217.406 10.75L219.906 24.25L227.844 10.75L242.844 11.8125ZM262.875 41.9375H252.312C252.167 39.7292 252.292 37.8854 252.688 36.4062C253.083 34.9062 253.615 33.6667 254.281 32.6875C254.969 31.6875 255.729 30.8854 256.562 30.2812C257.417 29.6562 258.24 29.125 259.031 28.6875C259.844 28.2292 260.552 27.7917 261.156 27.375C261.781 26.9583 262.208 26.4375 262.438 25.8125C262.583 25.4375 262.625 25.0104 262.562 24.5312C262.5 24.0312 262.281 23.5625 261.906 23.125C261.552 22.6875 261.01 22.3229 260.281 22.0312C259.573 21.7188 258.646 21.5625 257.5 21.5625C256.75 21.5625 255.854 21.6354 254.812 21.7812C253.792 21.9062 252.719 22.1146 251.594 22.4062C250.469 22.6771 249.354 23.0208 248.25 23.4375C247.167 23.8333 246.188 24.2917 245.312 24.8125L243.938 12.5625C244.708 12.1042 245.573 11.6354 246.531 11.1562C247.51 10.6562 248.583 10.2188 249.75 9.84375C250.917 9.44792 252.188 9.125 253.562 8.875C254.938 8.625 256.417 8.5 258 8.5C260.562 8.5 262.979 8.85417 265.25 9.5625C267.542 10.2708 269.542 11.3125 271.25 12.6875C272.958 14.0625 274.312 15.7604 275.312 17.7812C276.312 19.7812 276.812 22.0833 276.812 24.6875C276.812 26.6667 276.531 28.2604 275.969 29.4688C275.406 30.6562 274.688 31.6354 273.812 32.4062C272.938 33.1771 271.958 33.8229 270.875 34.3438C269.792 34.8646 268.729 35.4375 267.688 36.0625C266.667 36.6667 265.719 37.4167 264.844 38.3125C263.99 39.2083 263.333 40.4167 262.875 41.9375ZM264.438 50.1875C264.438 51.1042 264.26 51.9583 263.906 52.75C263.552 53.5417 263.073 54.2292 262.469 54.8125C261.885 55.4167 261.198 55.8854 260.406 56.2188C259.615 56.5729 258.771 56.75 257.875 56.75C256.958 56.75 256.104 56.5729 255.312 56.2188C254.521 55.8854 253.823 55.4167 253.219 54.8125C252.635 54.2292 252.167 53.5417 251.812 52.75C251.479 51.9583 251.312 51.1042 251.312 50.1875C251.312 49.2917 251.479 48.4375 251.812 47.625C252.167 46.8125 252.635 46.1146 253.219 45.5312C253.823 44.9271 254.521 44.4479 255.312 44.0938C256.104 43.7396 256.958 43.5625 257.875 43.5625C258.771 43.5625 259.615 43.7396 260.406 44.0938C261.198 44.4479 261.885 44.9271 262.469 45.5312C263.073 46.1146 263.552 46.8125 263.906 47.625C264.26 48.4375 264.438 49.2917 264.438 50.1875Z"/>
</mask>
<path d="M70.75 8.5625L67.875 54.4375L53.625 55.0625L53.75 30.875L47.3125 50.375H41.8125L36.875 32.9375L36.8125 53.1875L22.375 53.625L23 10.4375L39.0625 9.8125L45.4375 30.5L53.9375 8.5625H70.75ZM111.906 51.4375L96.4062 53.4375L94.5312 46.375H87.4062L85.8438 53.4375L69.9062 51.875L82.3438 10.25L99.7188 9.375L111.906 51.4375ZM93.4062 36.8125L91.0312 25.9375L88.7188 36.8125H93.4062ZM155.062 9.3125L152.812 51.6875L136.438 53.1875L127.688 30.5L126.312 53.625H112.25L113.375 9.3125L129 8.5625L139.812 31.0625L140.312 9.8125L155.062 9.3125ZM200.125 9.3125L197.875 51.6875L181.5 53.1875L172.75 30.5L171.375 53.625H157.312L158.438 9.3125L174.062 8.5625L184.875 31.0625L185.375 9.8125L200.125 9.3125ZM242.844 11.8125L225.656 35.8125L224.844 55.375H210.031L210.406 35.9375L201.469 12.75L217.406 10.75L219.906 24.25L227.844 10.75L242.844 11.8125ZM262.875 41.9375H252.312C252.167 39.7292 252.292 37.8854 252.688 36.4062C253.083 34.9062 253.615 33.6667 254.281 32.6875C254.969 31.6875 255.729 30.8854 256.562 30.2812C257.417 29.6562 258.24 29.125 259.031 28.6875C259.844 28.2292 260.552 27.7917 261.156 27.375C261.781 26.9583 262.208 26.4375 262.438 25.8125C262.583 25.4375 262.625 25.0104 262.562 24.5312C262.5 24.0312 262.281 23.5625 261.906 23.125C261.552 22.6875 261.01 22.3229 260.281 22.0312C259.573 21.7188 258.646 21.5625 257.5 21.5625C256.75 21.5625 255.854 21.6354 254.812 21.7812C253.792 21.9062 252.719 22.1146 251.594 22.4062C250.469 22.6771 249.354 23.0208 248.25 23.4375C247.167 23.8333 246.188 24.2917 245.312 24.8125L243.938 12.5625C244.708 12.1042 245.573 11.6354 246.531 11.1562C247.51 10.6562 248.583 10.2188 249.75 9.84375C250.917 9.44792 252.188 9.125 253.562 8.875C254.938 8.625 256.417 8.5 258 8.5C260.562 8.5 262.979 8.85417 265.25 9.5625C267.542 10.2708 269.542 11.3125 271.25 12.6875C272.958 14.0625 274.312 15.7604 275.312 17.7812C276.312 19.7812 276.812 22.0833 276.812 24.6875C276.812 26.6667 276.531 28.2604 275.969 29.4688C275.406 30.6562 274.688 31.6354 273.812 32.4062C272.938 33.1771 271.958 33.8229 270.875 34.3438C269.792 34.8646 268.729 35.4375 267.688 36.0625C266.667 36.6667 265.719 37.4167 264.844 38.3125C263.99 39.2083 263.333 40.4167 262.875 41.9375ZM264.438 50.1875C264.438 51.1042 264.26 51.9583 263.906 52.75C263.552 53.5417 263.073 54.2292 262.469 54.8125C261.885 55.4167 261.198 55.8854 260.406 56.2188C259.615 56.5729 258.771 56.75 257.875 56.75C256.958 56.75 256.104 56.5729 255.312 56.2188C254.521 55.8854 253.823 55.4167 253.219 54.8125C252.635 54.2292 252.167 53.5417 251.812 52.75C251.479 51.9583 251.312 51.1042 251.312 50.1875C251.312 49.2917 251.479 48.4375 251.812 47.625C252.167 46.8125 252.635 46.1146 253.219 45.5312C253.823 44.9271 254.521 44.4479 255.312 44.0938C256.104 43.7396 256.958 43.5625 257.875 43.5625C258.771 43.5625 259.615 43.7396 260.406 44.0938C261.198 44.4479 261.885 44.9271 262.469 45.5312C263.073 46.1146 263.552 46.8125 263.906 47.625C264.26 48.4375 264.438 49.2917 264.438 50.1875Z" fill="url(#paint0_linear_552_2015)"/>
<path d="M70.75 8.5625L79.2334 9.09415C79.3801 6.75209 78.5521 4.45354 76.9455 2.7431C75.3389 1.03265 73.0967 0.0625 70.75 0.0625V8.5625ZM67.875 54.4375L68.2475 62.9293C72.5882 62.739 76.0866 59.3056 76.3584 54.9692L67.875 54.4375ZM53.625 55.0625L45.1251 55.0186C45.1131 57.3451 46.0553 59.5749 47.7319 61.188C49.4085 62.801 51.6731 63.6563 53.9974 63.5543L53.625 55.0625ZM53.75 30.875L62.2499 30.9189C62.2715 26.7371 59.2482 23.1609 55.1211 22.4863C50.994 21.8118 46.9894 24.2393 45.6785 28.2104L53.75 30.875ZM47.3125 50.375V58.875C50.9802 58.875 54.2343 56.5225 55.384 53.0396L47.3125 50.375ZM41.8125 50.375L33.634 52.6908C34.67 56.3495 38.01 58.875 41.8125 58.875V50.375ZM36.875 32.9375L45.0535 30.6217C43.8989 26.5443 39.9174 23.9401 35.719 24.5165C31.5206 25.0928 28.3881 28.6735 28.375 32.9113L36.875 32.9375ZM36.8125 53.1875L37.07 61.6836C41.6519 61.5448 45.2983 57.7977 45.3125 53.2137L36.8125 53.1875ZM22.375 53.625L13.8759 53.502C13.8423 55.8221 14.7587 58.0551 16.4123 59.6828C18.066 61.3105 20.3132 62.1914 22.6325 62.1211L22.375 53.625ZM23 10.4375L22.6695 1.94393C18.1547 2.1196 14.5663 5.79672 14.5009 10.3145L23 10.4375ZM39.0625 9.8125L47.1856 7.30932C46.051 3.62744 42.5818 1.16913 38.732 1.31893L39.0625 9.8125ZM45.4375 30.5L37.3144 33.0032C38.3803 36.4621 41.5198 38.8667 45.137 38.9947C48.7542 39.1227 52.0557 36.946 53.3633 33.571L45.4375 30.5ZM53.9375 8.5625V0.0625C50.4281 0.0625 47.2796 2.2192 46.0117 5.49152L53.9375 8.5625ZM70.75 8.5625L62.2666 8.03085L59.3916 53.9058L67.875 54.4375L76.3584 54.9692L79.2334 9.09415L70.75 8.5625ZM67.875 54.4375L67.5025 45.9457L53.2526 46.5707L53.625 55.0625L53.9974 63.5543L68.2475 62.9293L67.875 54.4375ZM53.625 55.0625L62.1249 55.1064L62.2499 30.9189L53.75 30.875L45.2501 30.8311L45.1251 55.0186L53.625 55.0625ZM53.75 30.875L45.6785 28.2104L39.241 47.7104L47.3125 50.375L55.384 53.0396L61.8215 33.5396L53.75 30.875ZM47.3125 50.375V41.875H41.8125V50.375V58.875H47.3125V50.375ZM41.8125 50.375L49.991 48.0592L45.0535 30.6217L36.875 32.9375L28.6965 35.2533L33.634 52.6908L41.8125 50.375ZM36.875 32.9375L28.375 32.9113L28.3125 53.1613L36.8125 53.1875L45.3125 53.2137L45.375 32.9637L36.875 32.9375ZM36.8125 53.1875L36.555 44.6914L22.1175 45.1289L22.375 53.625L22.6325 62.1211L37.07 61.6836L36.8125 53.1875ZM22.375 53.625L30.8741 53.748L31.4991 10.5605L23 10.4375L14.5009 10.3145L13.8759 53.502L22.375 53.625ZM23 10.4375L23.3305 18.9311L39.393 18.3061L39.0625 9.8125L38.732 1.31893L22.6695 1.94393L23 10.4375ZM39.0625 9.8125L30.9394 12.3157L37.3144 33.0032L45.4375 30.5L53.5606 27.9968L47.1856 7.30932L39.0625 9.8125ZM45.4375 30.5L53.3633 33.571L61.8633 11.6335L53.9375 8.5625L46.0117 5.49152L37.5117 27.429L45.4375 30.5ZM53.9375 8.5625V17.0625H70.75V8.5625V0.0625H53.9375V8.5625ZM111.906 51.4375L112.994 59.8676C115.455 59.55 117.655 58.1728 119.015 56.0973C120.376 54.0218 120.761 51.4555 120.07 49.0719L111.906 51.4375ZM96.4062 53.4375L88.1908 55.6186C89.2851 59.7405 93.2644 62.4134 97.494 61.8676L96.4062 53.4375ZM94.5312 46.375L102.747 44.1939C101.758 40.4686 98.3857 37.875 94.5312 37.875V46.375ZM87.4062 46.375V37.875C83.4193 37.875 79.9682 40.6461 79.1069 44.5389L87.4062 46.375ZM85.8438 53.4375L85.0144 61.8969C89.2947 62.3166 93.214 59.4729 94.1431 55.2736L85.8438 53.4375ZM69.9062 51.875L61.762 49.4415C61.035 51.8747 61.434 54.5054 62.8497 56.6137C64.2654 58.7219 66.5496 60.0867 69.0769 60.3344L69.9062 51.875ZM82.3438 10.25L81.9162 1.76076C78.3212 1.9418 75.2301 4.36764 74.1995 7.81652L82.3438 10.25ZM99.7188 9.375L107.883 7.00944C106.786 3.22272 103.229 0.687468 99.2912 0.885758L99.7188 9.375ZM93.4062 36.8125V45.3125C95.979 45.3125 98.4134 44.1472 100.027 42.1433C101.64 40.1394 102.259 37.5125 101.711 34.9989L93.4062 36.8125ZM91.0312 25.9375L99.3355 24.1239C98.4812 20.2118 95.0122 17.4265 91.0079 17.4375C87.0036 17.4485 83.55 20.2528 82.7171 24.1696L91.0312 25.9375ZM88.7188 36.8125L80.4046 35.0446C79.8712 37.5531 80.4989 40.1683 82.1128 42.1614C83.7267 44.1546 86.1542 45.3125 88.7188 45.3125V36.8125ZM111.906 51.4375L110.818 43.0074L95.3185 45.0074L96.4062 53.4375L97.494 61.8676L112.994 59.8676L111.906 51.4375ZM96.4062 53.4375L104.622 51.2564L102.747 44.1939L94.5312 46.375L86.3158 48.5561L88.1908 55.6186L96.4062 53.4375ZM94.5312 46.375V37.875H87.4062V46.375V54.875H94.5312V46.375ZM87.4062 46.375L79.1069 44.5389L77.5444 51.6014L85.8438 53.4375L94.1431 55.2736L95.7056 48.2111L87.4062 46.375ZM85.8438 53.4375L86.6731 44.9781L70.7356 43.4156L69.9062 51.875L69.0769 60.3344L85.0144 61.8969L85.8438 53.4375ZM69.9062 51.875L78.0505 54.3085L90.488 12.6835L82.3438 10.25L74.1995 7.81652L61.762 49.4415L69.9062 51.875ZM82.3438 10.25L82.7713 18.7392L100.146 17.8642L99.7188 9.375L99.2912 0.885758L81.9162 1.76076L82.3438 10.25ZM99.7188 9.375L91.5546 11.7406L103.742 53.8031L111.906 51.4375L120.07 49.0719L107.883 7.00944L99.7188 9.375ZM93.4062 36.8125L101.711 34.9989L99.3355 24.1239L91.0312 25.9375L82.727 27.7511L85.102 38.6261L93.4062 36.8125ZM91.0312 25.9375L82.7171 24.1696L80.4046 35.0446L88.7188 36.8125L97.0329 38.5804L99.3454 27.7054L91.0312 25.9375ZM88.7188 36.8125V45.3125H93.4062V36.8125V28.3125H88.7188V36.8125ZM155.062 9.3125L163.551 9.76319C163.677 7.38389 162.799 5.06081 161.13 3.35995C159.462 1.6591 157.156 0.736658 154.775 0.817379L155.062 9.3125ZM152.812 51.6875L153.588 60.1521C157.792 59.7669 161.077 56.3542 161.301 52.1382L152.812 51.6875ZM136.438 53.1875L128.507 56.2461C129.874 59.7916 133.429 61.9987 137.213 61.6521L136.438 53.1875ZM127.688 30.5L135.618 27.4414C134.179 23.7097 130.333 21.4861 126.381 22.1011C122.429 22.716 119.44 26.0029 119.202 29.9955L127.688 30.5ZM126.312 53.625V62.125C130.811 62.125 134.531 58.6201 134.798 54.1295L126.312 53.625ZM112.25 53.625L103.753 53.4093C103.695 55.7003 104.564 57.9177 106.164 59.5586C107.764 61.1996 109.958 62.125 112.25 62.125V53.625ZM113.375 9.3125L112.967 0.822275C108.52 1.03576 104.991 4.64545 104.878 9.09677L113.375 9.3125ZM129 8.5625L136.661 4.88083C135.182 1.8025 132.004 -0.0914717 128.592 0.0722752L129 8.5625ZM139.812 31.0625L132.151 34.7442C133.853 38.2861 137.761 40.1995 141.603 39.3718C145.444 38.5441 148.218 35.191 148.31 31.2624L139.812 31.0625ZM140.312 9.8125L140.025 1.31738C135.522 1.47 131.921 5.10884 131.815 9.61256L140.312 9.8125ZM155.062 9.3125L146.574 8.86181L144.324 51.2368L152.812 51.6875L161.301 52.1382L163.551 9.76319L155.062 9.3125ZM152.812 51.6875L152.037 43.2229L135.662 44.7229L136.438 53.1875L137.213 61.6521L153.588 60.1521L152.812 51.6875ZM136.438 53.1875L144.368 50.1289L135.618 27.4414L127.688 30.5L119.757 33.5586L128.507 56.2461L136.438 53.1875ZM127.688 30.5L119.202 29.9955L117.827 53.1205L126.312 53.625L134.798 54.1295L136.173 31.0045L127.688 30.5ZM126.312 53.625V45.125H112.25V53.625V62.125H126.312V53.625ZM112.25 53.625L120.747 53.8407L121.872 9.52823L113.375 9.3125L104.878 9.09677L103.753 53.4093L112.25 53.625ZM113.375 9.3125L113.783 17.8027L129.408 17.0527L129 8.5625L128.592 0.0722752L112.967 0.822275L113.375 9.3125ZM129 8.5625L121.339 12.2442L132.151 34.7442L139.812 31.0625L147.474 27.3808L136.661 4.88083L129 8.5625ZM139.812 31.0625L148.31 31.2624L148.81 10.0124L140.312 9.8125L131.815 9.61256L131.315 30.8626L139.812 31.0625ZM140.312 9.8125L140.6 18.3076L155.35 17.8076L155.062 9.3125L154.775 0.817379L140.025 1.31738L140.312 9.8125ZM200.125 9.3125L208.613 9.76319C208.739 7.38389 207.861 5.06081 206.193 3.35995C204.524 1.6591 202.218 0.736658 199.837 0.817379L200.125 9.3125ZM197.875 51.6875L198.65 60.1521C202.855 59.7669 206.139 56.3542 206.363 52.1382L197.875 51.6875ZM181.5 53.1875L173.569 56.2461C174.937 59.7916 178.491 61.9987 182.275 61.6521L181.5 53.1875ZM172.75 30.5L180.681 27.4414C179.241 23.7097 175.395 21.4861 171.443 22.1011C167.491 22.716 164.502 26.0029 164.265 29.9955L172.75 30.5ZM171.375 53.625V62.125C175.873 62.125 179.593 58.6201 179.86 54.1295L171.375 53.625ZM157.312 53.625L148.815 53.4093C148.757 55.7003 149.626 57.9177 151.226 59.5586C152.826 61.1996 155.021 62.125 157.312 62.125V53.625ZM158.438 9.3125L158.03 0.822275C153.582 1.03576 150.053 4.64545 149.94 9.09677L158.438 9.3125ZM174.062 8.5625L181.724 4.88083C180.244 1.8025 177.066 -0.0914717 173.655 0.0722752L174.062 8.5625ZM184.875 31.0625L177.214 34.7442C178.916 38.2861 182.824 40.1995 186.665 39.3718C190.507 38.5441 193.28 35.191 193.373 31.2624L184.875 31.0625ZM185.375 9.8125L185.087 1.31738C180.585 1.47 176.983 5.10884 176.877 9.61256L185.375 9.8125ZM200.125 9.3125L191.637 8.86181L189.387 51.2368L197.875 51.6875L206.363 52.1382L208.613 9.76319L200.125 9.3125ZM197.875 51.6875L197.1 43.2229L180.725 44.7229L181.5 53.1875L182.275 61.6521L198.65 60.1521L197.875 51.6875ZM181.5 53.1875L189.431 50.1289L180.681 27.4414L172.75 30.5L164.819 33.5586L173.569 56.2461L181.5 53.1875ZM172.75 30.5L164.265 29.9955L162.89 53.1205L171.375 53.625L179.86 54.1295L181.235 31.0045L172.75 30.5ZM171.375 53.625V45.125H157.312V53.625V62.125H171.375V53.625ZM157.312 53.625L165.81 53.8407L166.935 9.52823L158.438 9.3125L149.94 9.09677L148.815 53.4093L157.312 53.625ZM158.438 9.3125L158.845 17.8027L174.47 17.0527L174.062 8.5625L173.655 0.0722752L158.03 0.822275L158.438 9.3125ZM174.062 8.5625L166.401 12.2442L177.214 34.7442L184.875 31.0625L192.536 27.3808L181.724 4.88083L174.062 8.5625ZM184.875 31.0625L193.373 31.2624L193.873 10.0124L185.375 9.8125L176.877 9.61256L176.377 30.8626L184.875 31.0625ZM185.375 9.8125L185.663 18.3076L200.413 17.8076L200.125 9.3125L199.837 0.817379L185.087 1.31738L185.375 9.8125ZM242.844 11.8125L249.754 16.7615C251.547 14.259 251.846 10.9832 250.537 8.19739C249.228 5.41161 246.515 3.55123 243.444 3.33374L242.844 11.8125ZM225.656 35.8125L218.746 30.8635C217.782 32.2089 217.232 33.8063 217.164 35.4598L225.656 35.8125ZM224.844 55.375V63.875C229.401 63.875 233.147 60.281 233.336 55.7277L224.844 55.375ZM210.031 55.375L201.533 55.211C201.489 57.4934 202.365 59.6975 203.963 61.3272C205.562 62.9568 207.748 63.875 210.031 63.875V55.375ZM210.406 35.9375L218.905 36.1015C218.926 35.0012 218.733 33.9073 218.337 32.8804L210.406 35.9375ZM201.469 12.75L200.41 4.31615C197.816 4.6417 195.516 6.14306 194.174 8.38691C192.832 10.6308 192.597 13.3674 193.538 15.8071L201.469 12.75ZM217.406 10.75L225.764 9.20224C224.944 4.77538 220.815 1.75557 216.348 2.31615L217.406 10.75ZM219.906 24.25L211.548 25.7978C212.194 29.2862 214.939 32.0064 218.433 32.6213C221.927 33.2363 225.435 31.6164 227.234 28.5582L219.906 24.25ZM227.844 10.75L228.444 2.27124C225.224 2.04315 222.153 3.65893 220.516 6.44181L227.844 10.75ZM242.844 11.8125L235.933 6.86347L218.746 30.8635L225.656 35.8125L232.567 40.7615L249.754 16.7615L242.844 11.8125ZM225.656 35.8125L217.164 35.4598L216.351 55.0223L224.844 55.375L233.336 55.7277L234.149 36.1652L225.656 35.8125ZM224.844 55.375V46.875H210.031V55.375V63.875H224.844V55.375ZM210.031 55.375L218.53 55.539L218.905 36.1015L210.406 35.9375L201.908 35.7735L201.533 55.211L210.031 55.375ZM210.406 35.9375L218.337 32.8804L209.4 9.69295L201.469 12.75L193.538 15.8071L202.475 38.9946L210.406 35.9375ZM201.469 12.75L202.527 21.1839L218.465 19.1839L217.406 10.75L216.348 2.31615L200.41 4.31615L201.469 12.75ZM217.406 10.75L209.048 12.2978L211.548 25.7978L219.906 24.25L228.264 22.7022L225.764 9.20224L217.406 10.75ZM219.906 24.25L227.234 28.5582L235.171 15.0582L227.844 10.75L220.516 6.44181L212.579 19.9418L219.906 24.25ZM227.844 10.75L227.243 19.2288L242.243 20.2913L242.844 11.8125L243.444 3.33374L228.444 2.27124L227.844 10.75ZM262.875 41.9375V50.4375C266.625 50.4375 269.931 47.9804 271.013 44.3902L262.875 41.9375ZM252.312 41.9375L243.831 42.4976C244.126 46.9649 247.836 50.4375 252.312 50.4375V41.9375ZM252.688 36.4062L260.899 38.6036C260.901 38.5941 260.904 38.5846 260.906 38.5751L252.688 36.4062ZM254.281 32.6875L247.277 27.872C247.27 27.8826 247.262 27.8932 247.255 27.9038L254.281 32.6875ZM256.562 30.2812L261.552 37.1629C261.562 37.1557 261.572 37.1483 261.582 37.141L256.562 30.2812ZM259.031 28.6875L263.143 36.1271C263.164 36.1151 263.186 36.103 263.207 36.0908L259.031 28.6875ZM261.156 27.375L256.441 20.3026C256.404 20.3273 256.367 20.3524 256.331 20.3777L261.156 27.375ZM262.438 25.8125L254.515 22.7317C254.495 22.7831 254.476 22.8346 254.457 22.8863L262.438 25.8125ZM262.562 24.5312L254.128 25.5855C254.13 25.6006 254.132 25.6156 254.134 25.6306L262.562 24.5312ZM261.906 23.125L255.3 28.4732C255.35 28.5351 255.401 28.5963 255.453 28.6567L261.906 23.125ZM260.281 22.0312L256.85 29.8081C256.941 29.8481 257.032 29.8865 257.124 29.9233L260.281 22.0312ZM254.812 21.7812L255.846 30.2182C255.894 30.2123 255.943 30.2059 255.991 30.1992L254.812 21.7812ZM251.594 22.4062L253.583 30.6702C253.631 30.6586 253.679 30.6466 253.727 30.6342L251.594 22.4062ZM248.25 23.4375L251.167 31.4213C251.195 31.411 251.223 31.4006 251.251 31.3901L248.25 23.4375ZM245.312 24.8125L236.866 25.7606C237.188 28.6303 238.945 31.1402 241.531 32.425C244.117 33.7097 247.179 33.5935 249.66 32.1165L245.312 24.8125ZM243.938 12.5625L239.593 5.25644C236.723 6.96307 235.118 10.1922 235.491 13.5106L243.938 12.5625ZM246.531 11.1562L250.333 18.7589C250.354 18.7481 250.375 18.7373 250.397 18.7264L246.531 11.1562ZM249.75 9.84375L252.351 17.936C252.395 17.922 252.438 17.9077 252.481 17.8931L249.75 9.84375ZM265.25 9.5625L262.719 17.6769C262.726 17.6791 262.733 17.6813 262.74 17.6834L265.25 9.5625ZM275.312 17.7812L267.694 21.5511C267.699 21.5616 267.705 21.5721 267.71 21.5826L275.312 17.7812ZM275.969 29.4688L283.651 33.1075C283.659 33.0903 283.667 33.0732 283.675 33.056L275.969 29.4688ZM267.688 36.0625L272.017 43.3774C272.031 43.3687 272.046 43.36 272.061 43.3512L267.688 36.0625ZM264.844 38.3125L258.763 32.3732C258.739 32.3976 258.716 32.4222 258.692 32.4469L264.844 38.3125ZM262.469 54.8125L256.565 48.6976C256.493 48.7666 256.423 48.8369 256.354 48.9084L262.469 54.8125ZM260.406 56.2188L257.108 48.3848C257.05 48.4092 256.992 48.4342 256.935 48.4598L260.406 56.2188ZM255.312 56.2188L258.784 48.4598C258.726 48.4342 258.669 48.4092 258.611 48.3848L255.312 56.2188ZM253.219 54.8125L259.229 48.8021L253.219 54.8125ZM251.812 52.75L243.979 56.0485C244.003 56.1063 244.028 56.1638 244.054 56.2211L251.812 52.75ZM251.812 47.625L244.021 44.2285C243.996 44.285 243.972 44.3418 243.949 44.3988L251.812 47.625ZM262.469 45.5312L256.354 51.4353C256.423 51.5068 256.493 51.5771 256.565 51.6462L262.469 45.5312ZM262.875 41.9375V33.4375H252.312V41.9375V50.4375H262.875V41.9375ZM252.312 41.9375L260.794 41.3774C260.685 39.7208 260.824 38.8813 260.899 38.6036L252.688 36.4062L244.476 34.2089C243.759 36.8896 243.649 39.7376 243.831 42.4976L252.312 41.9375ZM252.688 36.4062L260.906 38.5751C261.128 37.7353 261.323 37.4489 261.307 37.4712L254.281 32.6875L247.255 27.9038C245.907 29.8844 245.039 32.0772 244.469 34.2374L252.688 36.4062ZM254.281 32.6875L261.286 37.503C261.52 37.162 261.629 37.1067 261.552 37.1629L256.562 30.2812L251.573 23.3996C249.829 24.6641 248.417 26.213 247.277 27.872L254.281 32.6875ZM256.562 30.2812L261.582 37.141C262.193 36.6936 262.713 36.3644 263.143 36.1271L259.031 28.6875L254.92 21.2479C253.766 21.8856 252.64 22.6189 251.543 23.4215L256.562 30.2812ZM259.031 28.6875L263.207 36.0908C264.186 35.5388 265.12 34.9666 265.982 34.3723L261.156 27.375L256.331 20.3777C255.984 20.6167 255.501 20.9196 254.855 21.2842L259.031 28.6875ZM261.156 27.375L265.871 34.4474C267.796 33.1644 269.489 31.2711 270.418 28.7387L262.438 25.8125L254.457 22.8863C254.927 21.6039 255.767 20.7523 256.441 20.3026L261.156 27.375ZM262.438 25.8125L270.36 28.8933C271.117 26.9466 271.201 25.0418 270.991 23.4319L262.562 24.5312L254.134 25.6306C254.049 24.9791 254.05 23.9284 254.515 22.7317L262.438 25.8125ZM262.562 24.5312L270.997 23.477C270.699 21.094 269.66 19.1097 268.36 17.5933L261.906 23.125L255.453 28.6567C254.903 28.0153 254.301 26.9685 254.128 25.5855L262.562 24.5312ZM261.906 23.125L268.513 17.7768C266.955 15.8519 265.01 14.768 263.438 14.1392L260.281 22.0312L257.124 29.9233C257.011 29.8779 256.15 29.5231 255.3 28.4732L261.906 23.125ZM260.281 22.0312L263.712 14.2544C261.533 13.2929 259.309 13.0625 257.5 13.0625V21.5625V30.0625C257.698 30.0625 257.733 30.0768 257.642 30.0615C257.553 30.0465 257.261 29.9894 256.85 29.8081L260.281 22.0312ZM257.5 21.5625V13.0625C256.234 13.0625 254.924 13.1828 253.634 13.3633L254.812 21.7812L255.991 30.1992C256.784 30.0881 257.266 30.0625 257.5 30.0625V21.5625ZM254.812 21.7812L253.779 13.3443C252.344 13.5201 250.902 13.8047 249.461 14.1783L251.594 22.4062L253.727 30.6342C254.536 30.4245 255.24 30.2924 255.846 30.2182L254.812 21.7812ZM251.594 22.4062L249.604 14.1423C248.129 14.4975 246.677 14.946 245.249 15.4849L248.25 23.4375L251.251 31.3901C252.031 31.0956 252.808 30.8567 253.583 30.6702L251.594 22.4062ZM248.25 23.4375L245.333 15.4537C243.817 16.0077 242.35 16.6842 240.965 17.5085L245.312 24.8125L249.66 32.1165C250.025 31.8991 250.517 31.659 251.167 31.4213L248.25 23.4375ZM245.312 24.8125L253.759 23.8644L252.384 11.6144L243.938 12.5625L235.491 13.5106L236.866 25.7606L245.312 24.8125ZM243.938 12.5625L248.282 19.8686C248.845 19.5335 249.524 19.1629 250.333 18.7589L246.531 11.1562L242.73 3.55362C241.621 4.10791 240.572 4.67481 239.593 5.25644L243.938 12.5625ZM246.531 11.1562L250.397 18.7264C250.926 18.4561 251.571 18.1869 252.351 17.936L249.75 9.84375L247.149 1.75151C245.596 2.25064 244.095 2.85636 242.666 3.58611L246.531 11.1562ZM249.75 9.84375L252.481 17.8931C253.204 17.6478 254.065 17.423 255.083 17.2379L253.562 8.875L252.042 0.512106C250.31 0.827032 248.629 1.24807 247.019 1.79443L249.75 9.84375ZM253.562 8.875L255.083 17.2379C255.895 17.0902 256.861 17 258 17V8.5V0C255.973 0 253.98 0.159803 252.042 0.512106L253.562 8.875ZM258 8.5V17C259.77 17 261.328 17.2431 262.719 17.6769L265.25 9.5625L267.781 1.4481C264.63 0.465193 261.355 0 258 0V8.5ZM265.25 9.5625L262.74 17.6834C264.102 18.1044 265.124 18.6681 265.92 19.3091L271.25 12.6875L276.58 6.0659C273.959 3.9569 270.981 2.43723 267.76 1.44158L265.25 9.5625ZM271.25 12.6875L265.92 19.3091C266.641 19.8887 267.225 20.6036 267.694 21.5511L275.312 17.7812L282.931 14.0114C281.4 10.9172 279.276 8.23629 276.58 6.0659L271.25 12.6875ZM275.312 17.7812L267.71 21.5826C268.03 22.2224 268.312 23.1859 268.312 24.6875H276.812H285.312C285.312 20.9807 284.595 17.3401 282.915 13.9799L275.312 17.7812ZM276.812 24.6875H268.312C268.312 25.2868 268.269 25.6743 268.231 25.89C268.193 26.1074 268.173 26.0739 268.263 25.8815L275.969 29.4688L283.675 33.056C284.951 30.3143 285.312 27.3562 285.312 24.6875H276.812ZM275.969 29.4688L268.287 25.83C268.219 25.9742 268.17 26.0445 268.156 26.064C268.143 26.0816 268.154 26.063 268.194 26.0282L273.812 32.4062L279.431 38.7843C281.276 37.1589 282.656 35.2065 283.651 33.1075L275.969 29.4688ZM273.812 32.4062L268.194 26.0282C267.92 26.2693 267.596 26.4888 267.192 26.6831L270.875 34.3438L274.558 42.0044C276.32 41.157 277.955 40.0849 279.431 38.7843L273.812 32.4062ZM270.875 34.3438L267.192 26.6831C265.871 27.3184 264.578 28.0157 263.314 28.7738L267.688 36.0625L272.061 43.3512C272.881 42.8593 273.713 42.4107 274.558 42.0044L270.875 34.3438ZM267.688 36.0625L263.358 28.7476C261.661 29.7521 260.13 30.9737 258.763 32.3732L264.844 38.3125L270.924 44.2518C271.307 43.8597 271.672 43.5813 272.017 43.3774L267.688 36.0625ZM264.844 38.3125L258.692 32.4469C256.693 34.5429 255.474 37.037 254.737 39.4848L262.875 41.9375L271.013 44.3902C271.1 44.1023 271.168 43.9697 271.18 43.9473C271.19 43.9297 271.139 44.0276 270.996 44.1781L264.844 38.3125ZM264.438 50.1875H255.938C255.938 50.0955 255.947 49.9587 255.982 49.7901C256.017 49.6202 256.072 49.4461 256.147 49.2789L263.906 52.75L271.665 56.2211C272.535 54.2758 272.938 52.231 272.938 50.1875H264.438ZM263.906 52.75L256.147 49.2789C256.18 49.205 256.232 49.1078 256.308 48.9991C256.384 48.89 256.471 48.7877 256.565 48.6976L262.469 54.8125L268.373 60.9274C269.784 59.5647 270.882 57.9714 271.665 56.2211L263.906 52.75ZM262.469 54.8125L256.354 48.9084C256.588 48.6663 256.865 48.4873 257.108 48.3848L260.406 56.2188L263.705 64.0527C265.531 63.2836 267.183 62.167 268.584 60.7166L262.469 54.8125ZM260.406 56.2188L256.935 48.4598C257.089 48.3908 257.259 48.3352 257.434 48.2984C257.608 48.2619 257.759 48.25 257.875 48.25V56.75V65.25C259.927 65.25 261.957 64.8366 263.877 63.9777L260.406 56.2188ZM257.875 56.75V48.25C257.967 48.25 258.104 48.2592 258.272 48.2942C258.442 48.3294 258.616 48.385 258.784 48.4598L255.312 56.2188L251.841 63.9777C253.787 64.848 255.831 65.25 257.875 65.25V56.75ZM255.312 56.2188L258.611 48.3848C258.708 48.4258 258.82 48.4838 258.935 48.561C259.05 48.6382 259.149 48.7216 259.229 48.8021L253.219 54.8125L247.208 60.8229C248.594 62.2088 250.214 63.295 252.014 64.0527L255.312 56.2188ZM253.219 54.8125L259.229 48.8021C259.316 48.8885 259.391 48.9805 259.453 49.071C259.514 49.1608 259.551 49.234 259.571 49.2789L251.812 52.75L244.054 56.2211C244.809 57.9096 245.855 59.4697 247.208 60.8229L253.219 54.8125ZM251.812 52.75L259.646 49.4515C259.709 49.6007 259.753 49.7496 259.78 49.8878C259.807 50.0247 259.812 50.1284 259.812 50.1875H251.312H242.812C242.812 52.16 243.177 54.1439 243.979 56.0485L251.812 52.75ZM251.312 50.1875H259.812C259.812 50.27 259.805 50.3781 259.78 50.5028C259.756 50.628 259.719 50.7464 259.676 50.8512L251.812 47.625L243.949 44.3988C243.187 46.2558 242.812 48.2078 242.812 50.1875H251.312ZM251.812 47.625L259.604 51.0215C259.565 51.111 259.452 51.3184 259.229 51.5417L253.219 45.5312L247.208 39.5208C245.818 40.9107 244.768 42.514 244.021 44.2285L251.812 47.625ZM253.219 45.5312L259.229 51.5417C259.166 51.6045 259.091 51.6681 259.006 51.7262C258.922 51.784 258.845 51.8254 258.784 51.8527L255.312 44.0938L251.841 36.3348C250.118 37.1056 248.556 38.1727 247.208 39.5208L253.219 45.5312ZM255.312 44.0938L258.784 51.8527C258.616 51.9275 258.442 51.9831 258.272 52.0183C258.104 52.0533 257.967 52.0625 257.875 52.0625V43.5625V35.0625C255.831 35.0625 253.787 35.4645 251.841 36.3348L255.312 44.0938ZM257.875 43.5625V52.0625C257.759 52.0625 257.608 52.0506 257.434 52.0141C257.259 51.9773 257.089 51.9217 256.935 51.8527L260.406 44.0938L263.877 36.3348C261.957 35.4759 259.927 35.0625 257.875 35.0625V43.5625ZM260.406 44.0938L256.935 51.8527C256.861 51.8197 256.764 51.7678 256.655 51.6921C256.546 51.6161 256.444 51.5286 256.354 51.4353L262.469 45.5312L268.584 39.6272C267.221 38.2158 265.628 37.1178 263.877 36.3348L260.406 44.0938ZM262.469 45.5312L256.565 51.6462C256.324 51.4135 256.18 51.1726 256.114 51.0215L263.906 47.625L271.698 44.2285C270.924 42.4524 269.822 40.8157 268.373 39.4163L262.469 45.5312ZM263.906 47.625L256.114 51.0215C256.061 50.8992 256.014 50.7564 255.982 50.6005C255.949 50.4449 255.938 50.3036 255.938 50.1875H264.438H272.938C272.938 48.1358 272.525 46.1242 271.698 44.2285L263.906 47.625Z" fill="white" mask="url(#path-1-outside-1_552_2015)"/>
<path d="M83.9397 57.4599L64.4736 58.7517L100.947 8.5017L120.614 6.93316L83.9397 57.4599Z" fill="white" fill-opacity="0.12"/>
<path d="M111.435 57.7974L91.9852 59.0669L132.762 2.8885L145.451 10.9332L111.435 57.7974Z" fill="white" fill-opacity="0.12"/>
<defs>
<linearGradient id="paint0_linear_552_2015" x1="0" y1="31.625" x2="299" y2="31.625" gradientUnits="userSpaceOnUse">
<stop stop-color="#F23030"/>
<stop offset="1" stop-color="#6F0305"/>
</linearGradient>
</defs>
</svg>
